<svg width="48" height="48" viewBox="0 0 48 48" fill="none" xmlns="http://www.w3.org/2000/svg">
<rect width="48" height="48" rx="24" fill="#1F1C32"/>
<path d="M31.6241 25.5994C30.9908 26.7212 29.9832 27.6416 28.659 28.3319C27.3347 29.0221 25.665 29.3673 23.6787 29.3673H20.0227V36.9749H14.1212V14.2959H23.6787C25.6075 14.2959 27.2484 14.6123 28.5726 15.2738C29.8968 15.9353 30.9044 16.827 31.5665 17.9487C32.2286 19.0992 32.5741 20.3935 32.5741 21.8891C32.5741 23.2409 32.2574 24.5065 31.5953 25.6282L31.6241 25.5994ZM25.7514 24.0463C26.2984 23.5286 26.5862 22.8095 26.5862 21.8604C26.5862 20.9112 26.2984 20.1921 25.7514 19.6744C25.2044 19.1567 24.3696 18.8979 23.2181 18.8979H19.9939V24.7941H23.2181C24.3408 24.7941 25.1756 24.5352 25.7514 24.0175V24.0463Z" fill="white"/>
<path d="M30.8858 13.888C30.3367 13.339 30.3367 12.4489 30.8858 11.8999L32.8739 9.91175C33.4229 9.36275 34.313 9.36275 34.862 9.91175L36.8501 11.8999C37.3991 12.4489 37.3991 13.339 36.8501 13.888L34.862 15.8761C34.313 16.4251 33.4229 16.4251 32.8739 15.8761L30.8858 13.888Z" fill="#B9FF47"/>
</svg>
