<svg width="491" height="407" viewBox="0 0 491 407" fill="none" xmlns="http://www.w3.org/2000/svg">
<path d="M27.0703 0.703125L10.6875 61.6641H0.5625L16.9453 0.703125H27.0703ZM51.4688 31.7109H44.2969L44.9297 22.3594L37.1953 27.7031L33.6094 21.4453L42.0469 17.4375L33.6094 13.3594L37.1953 7.10156L44.9297 12.375L44.2969 3.09375H51.4688L50.7656 12.375L58.5 7.10156L62.0859 13.3594L53.6484 17.4375L62.0859 21.4453L58.5 27.7031L50.7656 22.3594L51.4688 31.7109ZM91.8984 31.7109H84.7266L85.3594 22.3594L77.625 27.7031L74.0391 21.4453L82.4766 17.4375L74.0391 13.3594L77.625 7.10156L85.3594 12.375L84.7266 3.09375H91.8984L91.1953 12.375L98.9297 7.10156L102.516 13.3594L94.0781 17.4375L102.516 21.4453L98.9297 27.7031L91.1953 22.3594L91.8984 31.7109ZM23.8359 146.711H16.6641L17.2969 137.359L9.5625 142.703L5.97656 136.445L14.4141 132.438L5.97656 128.359L9.5625 122.102L17.2969 127.375L16.6641 118.094H23.8359L23.1328 127.375L30.8672 122.102L34.4531 128.359L26.0156 132.438L34.4531 136.445L30.8672 142.703L23.1328 137.359L23.8359 146.711ZM60.3984 169V118.094H81.2109C92.6719 118.094 99.7383 124.598 99.7031 134.969C99.7383 142 96.5039 146.992 90.8789 149.559L101.531 169H88.3828L79.0312 151.492H72.3516V169H60.3984ZM72.3516 141.93H78.6797C84.3398 141.965 87.3281 139.75 87.3281 134.969C87.3281 130.188 84.3398 127.797 78.6797 127.797H72.3516V141.93ZM106.453 169V118.094H141.68V127.867H118.406V138.625H139.852V148.398H118.406V159.227H141.75V169H106.453ZM149.344 169V118.094H183.867V127.867H161.297V138.625H181.617V148.398H161.297V169H149.344ZM194.203 169H181.266L198.562 118.094H214.453L231.68 169H218.812L215.367 158.102H197.648L194.203 169ZM200.531 148.961H212.484L206.719 130.68H206.297L200.531 148.961ZM268.523 136.445C267.855 131.207 264.094 127.902 258.398 127.938C250.91 127.902 246.305 133.633 246.305 143.547C246.305 153.812 251.016 159.156 258.328 159.156C263.812 159.156 267.609 156.203 268.523 151.211L280.617 151.281C279.668 160.352 271.898 169.703 258.117 169.703C244.336 169.703 234.07 160.281 234.07 143.547C234.07 126.742 244.547 117.391 258.117 117.391C270.316 117.391 279.352 124.316 280.617 136.445H268.523ZM285.82 127.867V118.094H328.641V127.867H313.172V169H301.289V127.867H285.82ZM380.039 143.547C380.074 160.316 369.492 169.703 355.852 169.703C342.141 169.703 331.664 160.246 331.664 143.547C331.664 126.742 342.141 117.391 355.852 117.391C369.492 117.391 380.074 126.742 380.039 143.547ZM343.898 143.547C343.898 153.672 348.434 159.156 355.852 159.156C363.305 159.156 367.84 153.672 367.805 143.547C367.84 133.422 363.305 127.902 355.852 127.938C348.434 127.902 343.898 133.422 343.898 143.547ZM387.141 169V118.094H407.953C419.414 118.094 426.48 124.598 426.445 134.969C426.48 142 423.246 146.992 417.621 149.559L428.273 169H415.125L405.773 151.492H399.094V169H387.141ZM399.094 141.93H405.422C411.082 141.965 414.07 139.75 414.07 134.969C414.07 130.188 411.082 127.797 405.422 127.797H399.094V141.93ZM23.8359 261.711H16.6641L17.2969 252.359L9.5625 257.703L5.97656 251.445L14.4141 247.438L5.97656 243.359L9.5625 237.102L17.2969 242.375L16.6641 233.094H23.8359L23.1328 242.375L30.8672 237.102L34.4531 243.359L26.0156 247.438L34.4531 251.445L30.8672 257.703L23.1328 252.359L23.8359 261.711ZM57.7266 233.094H71.1562L82.125 254.469H82.5469L93.5156 233.094H106.875L88.3125 266.773V284H76.3594V266.773L57.7266 233.094ZM156.445 258.547C156.48 275.316 145.898 284.703 132.258 284.703C118.547 284.703 108.07 275.246 108.07 258.547C108.07 241.742 118.547 232.391 132.258 232.391C145.898 232.391 156.48 241.742 156.445 258.547ZM120.305 258.547C120.305 268.672 124.84 274.156 132.258 274.156C139.711 274.156 144.246 268.672 144.211 258.547C144.246 248.422 139.711 242.902 132.258 242.938C124.84 242.902 120.305 248.422 120.305 258.547ZM194.414 233.094H206.438V265.93C206.438 277.32 197.789 284.668 184.992 284.703C172.09 284.668 163.547 277.32 163.547 265.93V233.094H175.5V264.945C175.5 270.324 179.332 274.227 184.992 274.227C190.617 274.227 194.449 270.324 194.414 264.945V233.094ZM214.172 284V233.094H234.984C246.445 233.094 253.512 239.598 253.477 249.969C253.512 257 250.277 261.992 244.652 264.559L255.305 284H242.156L232.805 266.492H226.125V284H214.172ZM226.125 256.93H232.453C238.113 256.965 241.102 254.75 241.102 249.969C241.102 245.188 238.113 242.797 232.453 242.797H226.125V256.93ZM310.148 251.445C309.48 246.207 305.719 242.902 300.023 242.938C292.535 242.902 287.93 248.633 287.93 258.547C287.93 268.812 292.641 274.156 299.953 274.156C305.438 274.156 309.234 271.203 310.148 266.211L322.242 266.281C321.293 275.352 313.523 284.703 299.742 284.703C285.961 284.703 275.695 275.281 275.695 258.547C275.695 241.742 286.172 232.391 299.742 232.391C311.941 232.391 320.977 239.316 322.242 251.445H310.148ZM376.945 258.547C376.98 275.316 366.398 284.703 352.758 284.703C339.047 284.703 328.57 275.246 328.57 258.547C328.57 241.742 339.047 232.391 352.758 232.391C366.398 232.391 376.98 241.742 376.945 258.547ZM340.805 258.547C340.805 268.672 345.34 274.156 352.758 274.156C360.211 274.156 364.746 268.672 364.711 258.547C364.746 248.422 360.211 242.902 352.758 242.938C345.34 242.902 340.805 248.422 340.805 258.547ZM402.68 284H384.047V233.094H402.68C418.219 233.094 427.781 242.621 427.781 258.547C427.781 274.438 418.219 284 402.68 284ZM396 273.734H402.258C410.977 273.77 415.758 269.586 415.758 258.547C415.758 247.473 410.977 243.324 402.117 243.289H396V273.734ZM434.883 284V233.094H470.109V242.867H446.836V253.625H468.281V263.398H446.836V274.227H470.18V284H434.883ZM484.383 284.703C480.902 284.703 477.984 281.855 478.055 278.305C477.984 274.859 480.902 272.047 484.383 272.047C487.758 272.047 490.746 274.859 490.781 278.305C490.746 281.855 487.758 284.703 484.383 284.703ZM23.8359 376.711H16.6641L17.2969 367.359L9.5625 372.703L5.97656 366.445L14.4141 362.438L5.97656 358.359L9.5625 352.102L17.2969 357.375L16.6641 348.094H23.8359L23.1328 357.375L30.8672 352.102L34.4531 358.359L26.0156 362.438L34.4531 366.445L30.8672 372.703L23.1328 367.359L23.8359 376.711ZM83.6016 345.703L67.2188 406.664H57.0938L73.4766 345.703H83.6016Z" fill="#FFEF51"/>
</svg>
