<svg width="144" height="24" viewBox="0 0 144 24" fill="none" xmlns="http://www.w3.org/2000/svg">
<g clip-path="url(#clip0_439_1169)">
<path d="M0.992407 10.9831C1.65401 9.68653 2.54462 8.72043 3.6897 8.00857C4.83478 7.32213 6.10709 6.96619 7.50663 6.96619C8.62627 6.96619 9.64411 7.19501 10.5856 7.65263C11.5017 8.11026 12.2396 8.72043 12.774 9.48314V1.80518H16.7182C17.4306 1.80518 17.9905 2.3645 17.9905 3.05094V23.7713H12.774V21.4069C12.2905 22.195 11.578 22.8306 10.6874 23.3137C9.77134 23.7967 8.72805 24.0255 7.53208 24.0255C6.13254 24.0255 4.86023 23.6696 3.71515 22.9831C2.57007 22.2713 1.67945 21.2798 1.01785 19.9831C0.356252 18.6865 0.0254517 17.1865 0.0254517 15.4831C0.0254517 13.7798 0.356252 12.2798 1.01785 11.0086L0.992407 10.9831ZM11.6798 12.4831C10.9673 11.7459 10.0767 11.3899 9.0334 11.3899C7.99011 11.3899 7.12494 11.7459 6.387 12.4831C5.67451 13.195 5.29281 14.1865 5.29281 15.4577C5.29281 16.7289 5.64906 17.7204 6.387 18.4577C7.09949 19.195 7.99011 19.5764 9.0334 19.5764C10.0767 19.5764 10.9419 19.2204 11.6798 18.4831C12.3923 17.7459 12.774 16.7543 12.774 15.4831C12.774 14.212 12.4177 13.2204 11.6798 12.4831Z" fill="white"/>
<path d="M37.126 16.7034H25.3189C25.3953 17.7203 25.7515 18.5084 26.3368 19.0678C26.9475 19.6017 27.6854 19.8813 28.5506 19.8813C29.8484 19.8813 30.7644 19.3474 31.2734 18.2796H36.8206C36.5407 19.3728 36.0318 20.3389 35.2684 21.2288C34.5305 22.0932 33.589 22.7796 32.4693 23.2627C31.3497 23.7457 30.1028 24 28.7033 24C27.0238 24 25.548 23.644 24.2502 22.9576C22.9525 22.2712 21.9346 21.2796 21.1967 19.983C20.4587 18.6864 20.1025 17.1864 20.1025 15.483C20.1025 13.7796 20.4587 12.2542 21.1967 10.983C21.9092 9.6864 22.927 8.7203 24.2248 8.00844C25.5225 7.322 27.0238 6.96606 28.7033 6.96606C30.3827 6.96606 31.8077 7.29657 33.1055 7.98301C34.3778 8.64403 35.3956 9.61013 36.1081 10.8559C36.8206 12.1017 37.2023 13.5508 37.2023 15.2288C37.2023 15.7118 37.1769 16.1949 37.1005 16.7034H37.126ZM31.8841 13.8813C31.8841 13.0169 31.5787 12.3305 30.968 11.7966C30.3573 11.2881 29.5939 11.0339 28.6778 11.0339C27.7618 11.0339 27.0747 11.2881 26.464 11.7712C25.8533 12.2542 25.4971 12.9661 25.3444 13.8813H31.8841Z" fill="white"/>
<path d="M46.4138 19.0171L50.1035 7.22046H53.8696C54.7602 7.22046 55.3709 8.05944 55.0655 8.873L49.6201 23.7713H43.1822L37.126 7.22046H41.7572C42.317 7.22046 42.8005 7.57639 42.9786 8.08487L46.3884 19.0171H46.4138Z" fill="white"/>
<path d="M72.0127 16.7034H60.2057C60.282 17.7203 60.6382 18.5084 61.2235 19.0678C61.8342 19.6017 62.5722 19.8813 63.4373 19.8813C64.7351 19.8813 65.6512 19.3474 66.1601 18.2796H71.7073C71.4274 19.3728 70.9185 20.3389 70.1551 21.2288C69.4172 22.0932 68.4757 22.7796 67.356 23.2627C66.2364 23.7457 64.9895 24 63.59 24C61.9106 24 60.4347 23.644 59.1369 22.9576C57.8392 22.2712 56.8213 21.2796 56.0834 19.983C55.3454 18.6864 54.9892 17.1864 54.9892 15.483C54.9892 13.7796 55.3454 12.2542 56.0834 10.983C56.7959 9.6864 57.8137 8.7203 59.1115 8.00844C60.4092 7.29657 61.9106 6.96606 63.59 6.96606C65.2695 6.96606 66.6944 7.29657 67.9922 7.98301C69.2645 8.64403 70.2824 9.61013 70.9948 10.8559C71.7073 12.1017 72.089 13.5508 72.089 15.2288C72.089 15.7118 72.0636 16.1949 71.9873 16.7034H72.0127ZM66.7708 13.8813C66.7708 13.0169 66.4654 12.3305 65.8547 11.7966C65.244 11.2881 64.4806 11.0339 63.5646 11.0339C62.6485 11.0339 61.9615 11.2881 61.3507 11.7712C60.74 12.2542 60.3838 12.9661 60.2311 13.8813H66.7708Z" fill="white"/>
<path d="M79.443 3.05094V23.7713H74.2266V1.80518H78.1707C78.8832 1.80518 79.443 2.3645 79.443 3.05094Z" fill="white"/>
<path d="M85.8809 22.9576C84.5577 22.2712 83.489 21.2796 82.7256 19.983C81.9622 18.6864 81.5805 17.1864 81.5805 15.483C81.5805 13.7796 81.9622 12.2796 82.751 10.983C83.5144 9.6864 84.5832 8.69488 85.9318 8.00844C87.2804 7.322 88.7818 6.96606 90.4612 6.96606C92.1407 6.96606 93.642 7.322 94.9906 8.00844C96.3393 8.69488 97.3826 9.6864 98.1714 10.983C98.9348 12.2796 99.3419 13.7796 99.3419 15.483C99.3419 17.1864 98.9603 18.6864 98.1714 19.983C97.3826 21.2796 96.3138 22.2712 94.9652 22.9576C93.6165 23.644 92.0898 24 90.4358 24C88.7818 24 87.255 23.644 85.9318 22.9576H85.8809ZM92.9295 18.5339C93.642 17.822 93.9728 16.805 93.9728 15.483C93.9728 14.161 93.642 13.144 92.9549 12.4322C92.2679 11.7203 91.4282 11.3644 90.4358 11.3644C89.4434 11.3644 88.5782 11.7203 87.8912 12.4067C87.2296 13.1186 86.8733 14.1356 86.8733 15.483C86.8733 16.8305 87.2041 17.822 87.8657 18.5339C88.5273 19.2457 89.367 19.6017 90.3594 19.6017C91.3518 19.6017 92.217 19.2457 92.9041 18.5339H92.9295Z" fill="white"/>
<path d="M116.951 12.9407C116.391 13.9323 115.5 14.7458 114.33 15.356C113.159 15.9662 111.683 16.2713 109.928 16.2713H106.696V23.7458H101.479V2.94922H109.928C111.632 2.94922 113.083 3.22888 114.253 3.81363C115.424 4.39837 116.315 5.18651 116.9 6.17803C117.485 7.19498 117.79 8.33905 117.79 9.66108C117.79 10.856 117.511 11.9746 116.925 12.9662L116.951 12.9407ZM111.76 11.5679C112.243 11.1102 112.498 10.4746 112.498 9.63566C112.498 8.79668 112.243 8.16108 111.76 7.70346C111.276 7.24583 110.538 7.01702 109.52 7.01702H106.67V12.2289H109.52C110.513 12.2289 111.251 12.0001 111.76 11.5424V11.5679Z" fill="white"/>
<path d="M125.144 9.19059V23.7457H119.928V7.94482H123.872C124.585 7.94482 125.144 8.50415 125.144 9.19059Z" fill="white"/>
<path d="M128.351 10.983C129.063 9.6864 130.081 8.7203 131.379 8.00844C132.676 7.322 134.152 6.96606 135.832 6.96606C137.969 6.96606 139.75 7.49996 141.201 8.59318C142.626 9.6864 143.567 11.2118 144.025 13.1949H138.478C138.02 11.9237 137.104 11.2881 135.755 11.2881C134.788 11.2881 134.025 11.644 133.465 12.3813C132.905 13.1186 132.6 14.1356 132.6 15.483C132.6 16.8305 132.88 17.8728 133.465 18.5847C134.025 19.2966 134.788 19.6779 135.755 19.6779C137.104 19.6779 137.995 19.0423 138.478 17.7712H144.025C143.567 19.7034 142.626 21.2288 141.175 22.3474C139.725 23.4661 137.944 24 135.832 24C134.152 24 132.676 23.644 131.379 22.9576C130.081 22.2712 129.089 21.2796 128.351 19.983C127.638 18.6864 127.256 17.1864 127.256 15.483C127.256 13.7796 127.613 12.2542 128.351 10.983Z" fill="white"/>
<path d="M120.048 4.08864C119.563 3.60336 119.563 2.81656 120.048 2.33128L121.805 0.573922C122.291 0.0886406 123.078 0.0886406 123.563 0.573922L125.32 2.33128C125.805 2.81656 125.805 3.60336 125.32 4.08864L123.563 5.846C123.078 6.33128 122.291 6.33128 121.805 5.846L120.048 4.08864Z" fill="#B9FF47"/>
</g>
<defs>
<clipPath id="clip0_439_1169">
<rect width="144" height="24" fill="white"/>
</clipPath>
</defs>
</svg>
